<svg width="30" height="30" viewBox="0 0 30 30" fill="none" xmlns="http://www.w3.org/2000/svg">
<path d="M28.125 15L25.5061 12.1852L26.3667 8.4375L22.6908 7.30922L21.5625 3.63328L17.8148 4.49391L15 1.875L12.1852 4.49391L8.4375 3.63328L7.30875 7.30922L3.63328 8.4375L4.49391 12.1847L1.875 15L4.49391 17.8148L3.63328 21.562L7.30922 22.6908L8.4375 26.3663L12.1847 25.5056L15 28.125L17.8148 25.5061L21.562 26.3667L22.6903 22.6908L26.3663 21.5625L25.5056 17.8153L28.125 15ZM13.8459 19.6866L8.96672 15.3492L10.2122 13.9477L13.7705 17.1103L19.433 10.8984L21.0333 12.4987L13.8459 19.6866Z" fill="#F8F6F2"/>
</svg>
