<svg width="25" height="24" viewBox="0 0 25 24" fill="none" xmlns="http://www.w3.org/2000/svg">
<g clip-path="url(#clip0_802_835)">
<path d="M22.9734 0H2.52187C1.54219 0 0.75 0.773438 0.75 1.72969V22.2656C0.75 23.2219 1.54219 24 2.52187 24H22.9734C23.9531 24 24.75 23.2219 24.75 22.2703V1.72969C24.75 0.773438 23.9531 0 22.9734 0ZM7.87031 20.4516H4.30781V8.99531H7.87031V20.4516ZM6.08906 7.43438C4.94531 7.43438 4.02188 6.51094 4.02188 5.37187C4.02188 4.23281 4.94531 3.30937 6.08906 3.30937C7.22813 3.30937 8.15156 4.23281 8.15156 5.37187C8.15156 6.50625 7.22813 7.43438 6.08906 7.43438ZM21.2016 20.4516H17.6437V14.8828C17.6437 13.5563 17.6203 11.8453 15.7922 11.8453C13.9406 11.8453 13.6594 13.2938 13.6594 14.7891V20.4516H10.1063V8.99531H13.5187V10.5609H13.5656C14.0391 9.66094 15.2016 8.70938 16.9313 8.70938C20.5359 8.70938 21.2016 11.0813 21.2016 14.1656V20.4516V20.4516Z" fill="#F8F6F2"/>
</g>
<defs>
<clipPath id="clip0_802_835">
<rect width="24" height="24" fill="white" transform="translate(0.75)"/>
</clipPath>
</defs>
</svg>
