<svg width="156" height="36" viewBox="0 0 156 36" fill="none" xmlns="http://www.w3.org/2000/svg">
<path d="M-6.01634e-06 35.05V34.55L0.999994 34.2C1.66666 34 2.09999 33.7 2.29999 33.3C2.53333 32.9 2.64999 32.3667 2.64999 31.7V5.50005C2.64999 4.83338 2.53333 4.30005 2.29999 3.90005C2.06666 3.50005 1.61666 3.18338 0.949994 2.95005L-6.01634e-06 2.55005V2.05005H12.15C17.1167 2.05005 20.7 2.96671 22.9 4.80005C25.1333 6.60005 26.25 8.98338 26.25 11.95C26.25 13.85 25.7833 15.6 24.85 17.2C23.95 18.7667 22.45 20.0167 20.35 20.95C18.25 21.8834 15.4167 22.35 11.85 22.35H10.15V31.55C10.15 32.85 10.8 33.7 12.1 34.1L13.6 34.55V35.05H-6.01634e-06ZM10.15 21.35H12.05C13.6833 21.35 15.0167 21.0834 16.05 20.55C17.0833 20.0167 17.85 19.0834 18.35 17.75C18.85 16.4167 19.1 14.5667 19.1 12.2C19.1 9.80005 18.8167 7.93338 18.25 6.60005C17.7167 5.26671 16.9167 4.35005 15.85 3.85005C14.7833 3.31671 13.45 3.05005 11.85 3.05005H10.15V21.35ZM36.2215 35.8C34.9215 35.8 33.7215 35.55 32.6215 35.05C31.5548 34.55 30.7048 33.75 30.0715 32.65C29.4715 31.5167 29.1881 30.0334 29.2215 28.2L29.3715 15.35C29.3715 14.5834 29.2381 14.0334 28.9715 13.7C28.7048 13.3667 28.2881 13.1334 27.7215 13L27.1215 12.8V12.3L36.0715 10.55L36.5715 11.05L36.3215 18.15V30.2C36.3215 31.2667 36.6215 32.05 37.2215 32.55C37.8548 33.05 38.6381 33.3 39.5715 33.3C40.5048 33.3 41.3381 33.1667 42.0715 32.9C42.8048 32.6334 43.5381 32.2334 44.2715 31.7L44.4715 15.4C44.4715 14.6334 44.3548 14.1 44.1215 13.8C43.8881 13.4667 43.4548 13.2334 42.8215 13.1L42.3215 12.95V12.45L51.0715 10.55L51.5715 11.05L51.4215 18.15V31.7C51.4215 32.4334 51.5215 33 51.7215 33.4C51.9215 33.8 52.3548 34.1334 53.0215 34.4L53.5215 34.55V35.05L44.7715 35.55L44.3215 32.6C43.2215 33.5 42.0215 34.2667 40.7215 34.9C39.4548 35.5 37.9548 35.8 36.2215 35.8ZM63.0906 35.7L54.6406 35.05V34.55L55.1406 34.45C56.4406 34.15 57.0906 33.3167 57.0906 31.95V5.20005C57.0906 4.50005 56.974 3.96671 56.7406 3.60005C56.5406 3.23338 56.1073 2.98338 55.4406 2.85005L54.7406 2.65005V2.15005L63.6406 4.70877e-05L64.2406 0.450047L64.0406 7.50005V12.55C65.1406 11.7834 66.3406 11.2167 67.6406 10.85C68.9406 10.45 70.2573 10.25 71.5906 10.25C73.4906 10.25 75.174 10.7 76.6406 11.6C78.1073 12.4667 79.2573 13.8334 80.0906 15.7C80.9573 17.5334 81.3906 19.9 81.3906 22.8C81.3906 25.7 80.9073 28.1167 79.9406 30.05C79.0073 31.95 77.7406 33.3834 76.1406 34.35C74.574 35.3167 72.8406 35.8 70.9406 35.8C69.7073 35.8 68.4573 35.6334 67.1906 35.3C65.9573 34.9667 64.8573 34.5 63.8906 33.9L63.0906 35.7ZM68.4406 34.1C69.5073 34.1 70.4406 33.7667 71.2406 33.1C72.0406 32.4334 72.674 31.3 73.1406 29.7C73.6073 28.0667 73.8406 25.8334 73.8406 23C73.8406 20.1667 73.624 17.9834 73.1906 16.45C72.7573 14.9167 72.1406 13.85 71.3406 13.25C70.574 12.65 69.6406 12.35 68.5406 12.35C66.974 12.35 65.524 12.7834 64.1906 13.65V32.85C64.824 33.25 65.474 33.5667 66.1406 33.8C66.8073 34 67.574 34.1 68.4406 34.1ZM82.548 35.05V34.55L83.148 34.35C84.348 33.95 84.948 33.1167 84.948 31.85V5.10005C84.948 4.43338 84.8147 3.93338 84.548 3.60005C84.2814 3.23338 83.8147 2.96671 83.148 2.80005L82.498 2.65005V2.15005L91.648 4.70877e-05L92.248 0.450047L92.048 7.45005V24.55C92.048 25.7834 92.048 27.0167 92.048 28.25C92.0814 29.45 92.098 30.65 92.098 31.85C92.098 32.5167 92.2314 33.0667 92.498 33.5C92.7647 33.9 93.2147 34.2 93.848 34.4L94.498 34.55V35.05H82.548ZM101.705 7.65005C100.571 7.65005 99.6047 7.30005 98.8047 6.60005C98.038 5.86671 97.6547 4.95005 97.6547 3.85005C97.6547 2.71671 98.038 1.80005 98.8047 1.10005C99.6047 0.400047 100.571 0.0500464 101.705 0.0500464C102.838 0.0500464 103.788 0.400047 104.555 1.10005C105.321 1.80005 105.705 2.71671 105.705 3.85005C105.705 4.95005 105.321 5.86671 104.555 6.60005C103.788 7.30005 102.838 7.65005 101.705 7.65005ZM95.8047 35.05V34.55L96.5047 34.35C97.1713 34.15 97.6213 33.85 97.8547 33.45C98.1213 33.05 98.2547 32.5167 98.2547 31.85V16.2C98.2547 15.5 98.1213 14.9834 97.8547 14.65C97.6213 14.2834 97.1713 14.0334 96.5047 13.9L95.8047 13.75V13.25L104.955 10.3L105.455 10.8L105.305 17.9V31.9C105.305 32.5667 105.421 33.1 105.655 33.5C105.921 33.9 106.371 34.2 107.005 34.4L107.505 34.55V35.05H95.8047ZM117.768 35.8C116.468 35.8 115.268 35.55 114.168 35.05C113.102 34.55 112.252 33.75 111.618 32.65C111.018 31.5167 110.735 30.0334 110.768 28.2L110.918 15.35C110.918 14.5834 110.785 14.0334 110.518 13.7C110.252 13.3667 109.835 13.1334 109.268 13L108.668 12.8V12.3L117.618 10.55L118.118 11.05L117.868 18.15V30.2C117.868 31.2667 118.168 32.05 118.768 32.55C119.402 33.05 120.185 33.3 121.118 33.3C122.052 33.3 122.885 33.1667 123.618 32.9C124.352 32.6334 125.085 32.2334 125.818 31.7L126.018 15.4C126.018 14.6334 125.902 14.1 125.668 13.8C125.435 13.4667 125.002 13.2334 124.368 13.1L123.868 12.95V12.45L132.618 10.55L133.118 11.05L132.968 18.15V31.7C132.968 32.4334 133.068 33 133.268 33.4C133.468 33.8 133.902 34.1334 134.568 34.4L135.068 34.55V35.05L126.318 35.55L125.868 32.6C124.768 33.5 123.568 34.2667 122.268 34.9C121.002 35.5 119.502 35.8 117.768 35.8ZM145.03 35.8C143.397 35.8 141.93 35.6 140.63 35.2C139.33 34.8334 138.13 34.3667 137.03 33.8L137.08 27.85H137.58L139.28 30.85C140.014 32.1834 140.814 33.1834 141.68 33.85C142.58 34.4834 143.714 34.8 145.08 34.8C146.68 34.8 147.964 34.45 148.93 33.75C149.93 33.0167 150.43 32.05 150.43 30.85C150.43 29.75 150.08 28.85 149.38 28.15C148.68 27.45 147.38 26.8167 145.48 26.25L143.38 25.6C141.347 25 139.747 24.0667 138.58 22.8C137.414 21.5334 136.83 19.9834 136.83 18.15C136.83 15.95 137.697 14.0834 139.43 12.55C141.164 11.0167 143.647 10.25 146.88 10.25C148.18 10.25 149.397 10.4 150.53 10.7C151.697 10.9667 152.814 11.3834 153.88 11.95L153.58 17.35H153.08L151.33 14.25C150.697 13.15 150.064 12.3834 149.43 11.95C148.83 11.4834 147.914 11.25 146.68 11.25C145.547 11.25 144.48 11.5667 143.48 12.2C142.48 12.8334 141.98 13.7334 141.98 14.9C141.98 16.0334 142.397 16.9334 143.23 17.6C144.097 18.2667 145.364 18.8834 147.03 19.45L149.28 20.1C151.68 20.8334 153.397 21.85 154.43 23.15C155.464 24.4167 155.98 25.95 155.98 27.75C155.98 30.1834 155.014 32.1334 153.08 33.6C151.18 35.0667 148.497 35.8 145.03 35.8Z" fill="white"/>
</svg>
