<svg width="475" height="273" viewBox="0 0 475 273" fill="none" xmlns="http://www.w3.org/2000/svg">
<path d="M411.871 272V262.138L455.817 262.214C458.059 262.214 459.765 261.708 460.937 260.697C462.16 259.634 462.772 257.94 462.772 255.614C462.772 253.287 462.16 251.618 460.937 250.607C459.765 249.545 458.059 249.014 455.817 249.014H428.456C422.8 249.014 418.393 247.674 415.234 244.993C412.126 242.262 410.571 238.267 410.571 233.007C410.571 227.747 412.126 223.777 415.234 221.097C418.393 218.366 422.8 217 428.456 217H471.408V226.862L429.755 226.786C427.564 226.786 425.857 227.292 424.634 228.303C423.411 229.264 422.8 230.832 422.8 233.007C422.8 235.182 423.411 236.775 424.634 237.786C425.857 238.747 427.564 239.228 429.755 239.228H457.116C462.772 239.228 467.153 240.618 470.262 243.4C473.421 246.131 475 250.202 475 255.614C475 260.975 473.421 265.046 470.262 267.828C467.153 270.609 462.772 272 457.116 272H411.871Z" fill="black"/>
<path d="M176.429 272V217.154L220.634 217C226.46 217 230.768 218.282 233.558 220.846C236.397 223.359 237.817 227.154 237.817 232.231C237.817 237.308 236.202 241.026 232.971 243.385C235.125 244.615 236.716 246.256 237.744 248.308C238.772 250.308 239.286 252.897 239.286 256.077C239.286 261.256 237.866 265.205 235.027 267.923C232.236 270.59 227.928 271.923 222.103 271.923L176.429 272ZM219.239 226.846H188.178V239.154H219.239C223.694 239.154 225.921 237.051 225.921 232.846C225.921 228.846 223.694 226.846 219.239 226.846ZM220.708 249H188.178V262.077H220.708C225.162 262.077 227.39 259.872 227.39 255.462C227.39 251.154 225.162 249 220.708 249Z" fill="black"/>
<path d="M149.133 252.062C149.133 255.932 148.289 258.581 146.6 260.007C144.863 261.382 141.943 262.069 137.842 262.069H123.872C119.771 262.069 116.876 261.381 115.187 260.007C113.449 258.581 112.581 255.932 112.581 252.062V217H101V252.062C101 256.544 101.651 260.261 102.954 263.215C104.257 266.168 106.429 268.384 109.469 269.86C112.509 271.286 116.658 271.999 121.918 271.999L160.714 272V217H149.133V252.062Z" fill="black"/>
<path d="M386.419 252.062C386.419 255.932 385.574 258.581 383.886 260.007C382.148 261.382 379.229 262.069 375.128 262.069H361.158C357.057 262.069 354.161 261.381 352.472 260.007C350.735 258.581 349.866 255.932 349.866 252.062V217H338.286V252.062C338.286 256.544 338.937 260.261 340.24 263.215C341.543 266.168 343.714 268.384 346.754 269.86C349.794 271.286 353.944 271.999 359.203 271.999H377.082C377.849 271.999 378.592 271.982 379.311 271.952V271.999L398 272V217H386.419V252.062Z" fill="black"/>
<path d="M325.714 272H313.271L313.2 241.397H325.643L325.714 272Z" fill="black"/>
<path d="M325.614 229.194H313.171L313.143 217H325.585L325.614 229.194Z" fill="black"/>
<path d="M248.851 272L248.714 217H260.83L260.967 262.093H300.571V272H248.851Z" fill="black"/>
<path d="M313.143 272V217H325.714V272H313.143Z" fill="black"/>
<path d="M455.452 18.9591C442.629 6.3195 424.552 8.10854e-05 401.22 0H73.3575L42.373 43.7874L48.7048 43.8693H119.564C120.841 43.8693 122.077 43.9184 123.27 44.0132H395.229C404.478 44.0133 411.519 46.4962 416.354 51.4616C421.398 56.2015 423.922 64.553 423.922 76.5157C423.922 88.2525 421.398 96.6042 416.354 101.57C411.519 106.535 404.478 109.017 395.229 109.017L83.0272 108.68V108.652L42.3731 108.547V272.349H46.553C55.7175 272.349 62.948 271.084 68.245 268.556C73.5421 265.938 77.3263 262.011 79.5965 256.775C81.8666 251.538 83.0014 244.947 83.0014 237.002L83.0272 153.031L401.22 153.031C424.552 153.031 442.629 146.711 455.452 134.071C468.484 121.431 475 102.247 475 76.5157C475 50.7847 468.484 31.5989 455.452 18.9591Z" fill="black"/>
<path d="M14.7744 271.953H0V148.84L14.7744 131.219V271.953Z" fill="black" fill-opacity="0.1"/>
<path d="M35.88 272.346H21.1056V128.331L35.88 111.885V272.346Z" fill="black" fill-opacity="0.3"/>
</svg>
