<svg width="234" height="64" viewBox="0 0 234 64" fill="none" xmlns="http://www.w3.org/2000/svg">
<path d="M232.691 14.656C233.244 14.656 233.691 15.1037 233.691 15.656V48.96C233.691 57.856 227.867 63.744 219.035 63.744C212.222 63.744 206.545 59.5409 204.947 53.382C204.792 52.7827 205.264 52.224 205.884 52.224H212.656C213.129 52.224 213.525 52.5617 213.703 53C214.479 54.9147 216.48 55.872 219.035 55.872C223.643 55.872 225.243 52.608 225.243 49.536V45.696C223.259 47.36 220.699 48.384 217.691 48.384C209.627 48.384 204.251 42.56 204.251 33.92V15.656C204.251 15.1037 204.699 14.656 205.251 14.656H211.699C212.252 14.656 212.699 15.1037 212.699 15.656V33.92C212.699 35.776 213.339 40.384 218.843 40.384C222.619 40.384 225.243 37.632 225.243 33.92V15.656C225.243 15.1037 225.691 14.656 226.243 14.656H232.691Z" fill="black"/>
<path d="M196.766 39.8929C197.341 39.9077 197.828 40.3583 197.828 40.9344V46.6523C197.828 47.1638 197.442 47.5957 196.932 47.6283C187.848 48.2073 183.044 42.4688 183.044 33.728V7.27197C183.044 6.71969 183.492 6.27197 184.044 6.27197H190.492C191.045 6.27197 191.492 6.71969 191.492 7.27197V14.656H196.444C196.997 14.656 197.444 15.1037 197.444 15.656V21.144C197.444 21.6963 196.997 22.144 196.444 22.144H191.492V33.792C191.492 37.9957 193.25 39.8026 196.766 39.8929Z" fill="black"/>
<path d="M173.93 14.656C174.482 14.656 174.93 15.1037 174.93 15.656V46.616C174.93 47.1683 174.482 47.616 173.93 47.616H167.482C166.93 47.616 166.482 47.1683 166.482 46.616V15.656C166.482 15.1037 166.93 14.656 167.482 14.656H173.93Z" fill="black"/>
<path d="M159.802 37.248C159.802 43.776 153.786 48.384 145.338 48.384C137.411 48.384 131.428 44.4354 129.935 37.9994C129.797 37.4061 130.268 36.864 130.877 36.864H137.627C138.033 36.864 138.391 37.115 138.594 37.4669C139.953 39.8276 143.029 40.704 145.338 40.704C148.73 40.704 151.29 39.68 151.29 37.76C151.29 35.904 150.138 35.136 144.378 34.24C138.49 33.344 130.618 31.744 130.618 24.384C130.618 19.2 135.162 13.824 144.698 13.824C151.769 13.824 157.157 17.4144 158.708 22.9671C158.875 23.5655 158.401 24.128 157.78 24.128H150.923C150.493 24.128 150.123 23.8427 149.893 23.4792C149.122 22.2632 147.377 21.376 144.698 21.376C140.794 21.376 139.194 22.784 139.194 24C139.194 25.728 141.626 26.304 145.722 26.944C153.914 28.288 159.802 30.08 159.802 37.248Z" fill="black"/>
<path d="M108.916 13.824C118.068 13.824 125.556 21.312 125.556 31.168C125.556 41.024 118.068 48.384 108.916 48.384C99.7638 48.384 92.3398 41.024 92.3398 31.168C92.3398 21.312 99.7638 13.824 108.916 13.824ZM108.916 40.64C113.396 40.64 117.044 36.8 117.044 31.232C117.044 25.536 113.396 21.568 108.916 21.568C104.436 21.568 100.788 25.536 100.788 31.232C100.788 36.8 104.436 40.64 108.916 40.64Z" fill="black"/>
<path d="M74.3579 33.792V1C74.3579 0.447716 74.8056 0 75.3579 0H81.8699C82.4222 0 82.8699 0.447715 82.8699 1V33.792C82.8699 38.0475 84.6221 39.8074 88.0782 39.8939C88.6545 39.9083 89.1419 40.359 89.1419 40.9354V46.6524C89.1419 47.1639 88.7559 47.5957 88.2455 47.6285C79.1616 48.2112 74.3579 42.5328 74.3579 33.792Z" fill="black"/>
<path d="M51.0443 28.392C51.0443 27.8397 51.492 27.392 52.0443 27.392H60.3963C59.2443 23.68 55.9803 21.504 52.2043 21.504C47.4683 21.504 43.5643 25.728 43.5643 31.232C43.5643 36.672 47.4683 40.704 52.2043 40.704C54.8392 40.704 57.4181 39.7514 58.9972 37.5841C59.2017 37.3034 59.5199 37.12 59.8671 37.12H66.8786C67.543 37.12 68.0228 37.7569 67.7898 38.3791C65.5322 44.4089 59.942 48.448 52.3323 48.448C42.9883 48.448 35.3723 40.704 35.3723 31.232C35.3723 21.632 42.9883 13.824 52.3323 13.824C61.9963 13.824 70.2523 21.248 68.8443 34.432H52.0443C51.492 34.432 51.0443 33.9843 51.0443 33.432V28.392Z" fill="black"/>
<path d="M21.5359 35.888C21.5359 35.888 24.5 45 17.3119 49.136L0.191895 3.20001H9.15189C9.15189 3.20001 19.3599 28.976 21.5359 35.888Z" fill="black"/>
<circle cx="170.5" cy="6.5" r="4.5" fill="#FF0808"/>
<path d="M35 12L30 3L40 3L35 12Z" fill="black"/>
</svg>
